<svg width="113" height="20" viewBox="0 0 113 20" fill="none" xmlns="http://www.w3.org/2000/svg">
<rect x="0.75" y="0.96051" width="26.1359" height="18.0789" rx="1.71491" fill="white" stroke="#E5E5E5" stroke-width="0.5"/>
<path d="M11.9678 12.9904H10.5183L11.4249 7.38452H12.8744L11.9678 12.9904Z" fill="#142EBD"/>
<path d="M17.2219 7.52163C16.936 7.4082 16.4825 7.28296 15.9218 7.28296C14.4904 7.28296 13.4824 8.04628 13.4762 9.1376C13.4643 9.94277 14.1979 10.39 14.7466 10.6584C15.3074 10.9328 15.498 11.1118 15.498 11.3564C15.4923 11.7319 15.0448 11.905 14.6275 11.905C14.0488 11.905 13.7387 11.8158 13.2675 11.6069L13.0766 11.5173L12.8738 12.7757C13.2137 12.9306 13.8401 13.068 14.4904 13.074C16.0113 13.074 17.0015 12.3225 17.0132 11.1596C17.019 10.5214 16.6316 10.0324 15.7965 9.63284C15.2895 9.37634 14.9791 9.20338 14.9791 8.94094C14.985 8.70235 15.2417 8.45798 15.8139 8.45798C16.2852 8.44601 16.6314 8.55928 16.8937 8.67263L17.0248 8.73216L17.2219 7.52163Z" fill="#142EBD"/>
<path d="M19.1491 11.0045C19.2685 10.6824 19.7278 9.43597 19.7278 9.43597C19.7218 9.44794 19.847 9.10797 19.9186 8.89927L20.0199 9.38231C20.0199 9.38231 20.2943 10.7242 20.354 11.0045C20.1274 11.0045 19.4354 11.0045 19.1491 11.0045ZM20.9384 7.38452H19.8172C19.4714 7.38452 19.2087 7.48582 19.0596 7.84965L16.9065 12.9904H18.4274C18.4274 12.9904 18.6778 12.2985 18.7316 12.1494C18.8985 12.1494 20.3781 12.1494 20.5927 12.1494C20.6343 12.3463 20.7657 12.9904 20.7657 12.9904H22.1078L20.9384 7.38452Z" fill="#142EBD"/>
<path d="M9.30748 7.38452L7.88793 11.2072L7.73281 10.4319C7.47036 9.53735 6.64728 8.56541 5.72876 8.08213L7.02902 12.9845H8.56184L10.8402 7.38452H9.30748Z" fill="#142EBD"/>
<path d="M6.56985 7.38452H4.23773L4.21387 7.49779C6.03307 7.963 7.2379 9.08435 7.7329 10.4322L7.22593 7.85575C7.14246 7.49771 6.88596 7.39633 6.56985 7.38452Z" fill="#142EBD"/>
<rect x="29.5657" y="1.21051" width="25.6359" height="17.5789" rx="1.46491" fill="black"/>
<path d="M45.8091 4.8728C48.5692 4.87299 50.8069 7.13637 50.8071 9.92847C50.8071 12.7208 48.5693 14.9849 45.8091 14.9851C44.5713 14.9851 43.4389 14.5291 42.5659 13.7751C41.6931 14.5286 40.5621 14.9851 39.3247 14.9851C36.5644 14.9851 34.3267 12.7209 34.3267 9.92847C34.3269 7.13628 36.5645 4.87283 39.3247 4.8728C40.5618 4.8728 41.6931 5.32858 42.5659 6.08179C43.4388 5.32809 44.5715 4.8728 45.8091 4.8728Z" fill="#ED0006"/>
<path d="M45.8088 4.8728C48.569 4.87286 50.8066 7.13628 50.8069 9.92847C50.8069 12.7209 48.5692 14.9851 45.8088 14.9851C44.5712 14.9851 43.4396 14.5289 42.5667 13.7751C43.6408 12.8478 44.3225 11.469 44.3225 9.92847C44.3224 8.38794 43.6409 7.00908 42.5667 6.08179C43.4395 5.3283 44.5714 4.8728 45.8088 4.8728Z" fill="#F9A000"/>
<path d="M42.5667 6.08167C43.6411 7.00905 44.3225 8.38858 44.3225 9.92932C44.3224 11.4696 43.6406 12.8477 42.5667 13.775C41.4928 12.8477 40.8109 11.4696 40.8108 9.92932C40.8108 8.38865 41.4923 7.00905 42.5667 6.08167Z" fill="#FF5E00"/>
<mask id="mask0_1_1173" style="mask-type:alpha" maskUnits="userSpaceOnUse" x="58" y="1" width="26" height="18">
<rect x="58.1316" y="1.21051" width="25.6359" height="17.5789" fill="#016FD0"/>
</mask>
<g mask="url(#mask0_1_1173)">
<rect x="58.1316" y="1.21051" width="25.6359" height="17.5789" rx="1.46491" fill="#016FD0"/>
<path d="M63.1182 14.6589V10.6258H67.3885L67.8466 11.2231L68.3199 10.6258H83.82V14.3807C83.82 14.3807 83.4147 14.6549 82.9459 14.6589H74.3631L73.8466 14.0231V14.6589H72.1539V13.5736C72.1539 13.5736 71.9227 13.7251 71.4228 13.7251H70.8466V14.6589H68.2837L67.8262 14.0488L67.3617 14.6589H63.1182Z" fill="white"/>
<path d="M58.1316 7.58614L59.0946 5.34113H60.7599L61.3064 6.59869V5.34113H63.3766L63.7019 6.25006L64.0173 5.34113H73.3103V5.79808C73.3103 5.79808 73.7988 5.34113 74.6017 5.34113L77.6169 5.35166L78.154 6.59277V5.34113H79.8864L80.3633 6.05404V5.34113H82.1116V9.37421H80.3633L79.9063 8.65899V9.37421H77.361L77.105 8.73845H76.4207L76.1689 9.37421H74.4428C73.7519 9.37421 73.3103 8.92659 73.3103 8.92659V9.37421H70.7077L70.1911 8.73845V9.37421H60.5132L60.2574 8.73845H59.5753L59.3213 9.37421H58.1316V7.58614Z" fill="white"/>
<path d="M59.4348 5.8382L58.136 8.85805H58.9816L59.2212 8.25333H60.6144L60.8529 8.85805H61.7171L60.4195 5.8382H59.4348ZM59.9154 6.54101L60.34 7.59771H59.4895L59.9154 6.54101V6.54101Z" fill="#016FD0"/>
<path d="M61.8064 8.85731V5.83746L63.0081 5.84193L63.707 7.78894L64.3892 5.83746H65.5812V8.85731H64.8262V6.63216L64.026 8.85731H63.3639L62.5614 6.63216V8.85731H61.8064Z" fill="#016FD0"/>
<path d="M66.0984 8.85734V5.83746H68.562V6.51296H66.8613V7.02952H68.5222V7.66529H66.8613V8.20171H68.562V8.85734H66.0984Z" fill="#016FD0"/>
<path d="M68.9985 5.8382V8.85808H69.7535V7.78522H70.0714L70.9766 8.85808H71.8992L70.9058 7.74549C71.3135 7.71109 71.7341 7.36117 71.7341 6.81792C71.7341 6.18243 71.2353 5.8382 70.6786 5.8382H68.9985V5.8382ZM69.7535 6.51369H70.6165C70.8235 6.51369 70.9741 6.67563 70.9741 6.83158C70.9741 7.0322 70.779 7.14946 70.6277 7.14946H69.7535V6.51369V6.51369Z" fill="#016FD0"/>
<path d="M72.8141 8.85734H72.0432V5.83746H72.8141V8.85734Z" fill="#016FD0"/>
<path d="M74.6417 8.85734H74.4753C73.6702 8.85734 73.1814 8.22307 73.1814 7.35982C73.1814 6.47524 73.6647 5.83746 74.6814 5.83746H75.5158V6.5527H74.6509C74.2382 6.5527 73.9463 6.87478 73.9463 7.36727C73.9463 7.95211 74.2801 8.19774 74.7609 8.19774H74.9595L74.6417 8.85734Z" fill="#016FD0"/>
<path d="M76.2852 5.8382L74.9863 8.85805H75.8319L76.0716 8.25333H77.4648L77.7032 8.85805H78.5674L77.2698 5.8382H76.2852ZM76.7657 6.54101L77.1904 7.59771H76.3398L76.7657 6.54101Z" fill="#016FD0"/>
<path d="M78.6545 8.85734V5.83746H79.6144L80.84 7.73482V5.83746H81.595V8.85734H80.6661L79.4095 6.91032V8.85734H78.6545Z" fill="#016FD0"/>
<path d="M63.635 14.1424V11.1225H66.0986V11.798H64.3979V12.3146H66.0589V12.9503H64.3979V13.4867H66.0986V14.1424H63.635Z" fill="#016FD0"/>
<path d="M75.7058 14.1424V11.1225H78.1694V11.798H76.4687V12.3146H78.1217V12.9503H76.4687V13.4867H78.1694V14.1424H75.7058Z" fill="#016FD0"/>
<path d="M66.1943 14.1423L67.3938 12.651L66.1658 11.1225H67.1169L67.8483 12.0674L68.5821 11.1225H69.4961L68.2841 12.6324L69.4858 14.1423H68.5348L67.8247 13.2123L67.1318 14.1423H66.1943Z" fill="#016FD0"/>
<path d="M69.5747 11.1229V14.1427H70.3495V13.1891H71.1442C71.8167 13.1891 72.3264 12.8324 72.3264 12.1386C72.3264 11.5639 71.9266 11.1229 71.2423 11.1229H69.5747V11.1229ZM70.3495 11.8058H71.1865C71.4037 11.8058 71.559 11.939 71.559 12.1535C71.559 12.355 71.4045 12.5012 71.184 12.5012H70.3495V11.8058Z" fill="#016FD0"/>
<path d="M72.6545 11.1225V14.1424H73.4095V13.0695H73.7274L74.6326 14.1424H75.5552L74.5618 13.0298C74.9695 12.9954 75.3901 12.6455 75.3901 12.1022C75.3901 11.4667 74.8913 11.1225 74.3346 11.1225H72.6545V11.1225ZM73.4095 11.798H74.2725C74.4795 11.798 74.6301 11.9599 74.6301 12.1159C74.6301 12.3165 74.435 12.4338 74.2837 12.4338H73.4095V11.798V11.798Z" fill="#016FD0"/>
<path d="M78.5197 14.1424V13.4867H80.0306C80.2542 13.4867 80.351 13.3659 80.351 13.2334C80.351 13.1065 80.2545 12.9781 80.0306 12.9781H79.3478C78.7544 12.9781 78.4238 12.6165 78.4238 12.0737C78.4238 11.5895 78.7265 11.1225 79.6084 11.1225H81.0786L80.7608 11.802H79.4892C79.2462 11.802 79.1713 11.9295 79.1713 12.0513C79.1713 12.1765 79.2638 12.3146 79.4495 12.3146H80.1647C80.8263 12.3146 81.1134 12.6898 81.1134 13.1813C81.1134 13.7096 80.7935 14.1424 80.1287 14.1424H78.5197Z" fill="#016FD0"/>
<path d="M81.29 14.1424V13.4867H82.8009C83.0245 13.4867 83.1213 13.3659 83.1213 13.2334C83.1213 13.1065 83.0248 12.9781 82.8009 12.9781H82.1181C81.5246 12.9781 81.1941 12.6165 81.1941 12.0737C81.1941 11.5895 81.4968 11.1225 82.3787 11.1225H83.8189L83.531 11.802H82.2595C82.0164 11.802 81.9416 11.9295 81.9416 12.0513C81.9416 12.1765 82.0341 12.3146 82.2198 12.3146H82.935C83.5966 12.3146 83.8837 12.6898 83.8837 13.1813C83.8837 13.7096 83.5638 14.1424 82.899 14.1424H81.29Z" fill="#016FD0"/>
</g>
<rect x="86.6973" y="1.21051" width="25.6359" height="17.5789" rx="1.46491" fill="#232342"/>
<path d="M97.8672 18.7894L112.333 14.5778V17.3245C112.333 18.1336 111.677 18.7894 110.868 18.7894H97.8672Z" fill="#FD6020"/>
<path d="M97.2273 8.25037C97.5058 8.25037 97.8245 8.28925 98.0632 8.44666V9.23376C97.8643 8.99766 97.5456 8.84023 97.2273 8.84021C96.5907 8.87956 96.0734 9.43042 96.113 10.0599V10.139C96.1131 10.7686 96.6307 11.2406 97.2673 11.2406C97.5856 11.2405 97.8643 11.0831 98.0632 10.847V11.6342C97.7847 11.7522 97.5056 11.8314 97.1873 11.8314C96.1925 11.8313 95.3972 11.0046 95.3972 10.0209C95.3972 8.99771 96.1927 8.17166 97.2273 8.25037ZM103.474 10.6107L104.429 8.25037H105.146L103.674 11.8314H103.315L101.844 8.25037H102.559L103.474 10.6107ZM94.0437 8.17126C94.4018 8.17126 94.7603 8.3287 95.0388 8.56482L94.6804 9.03748C94.5213 8.88015 94.3226 8.76221 94.1238 8.76208C93.8852 8.72276 93.6862 8.91877 93.6462 9.15466C93.6462 9.35138 93.7651 9.43092 94.1628 9.58826C94.9584 9.90298 95.1581 10.1388 95.198 10.6107V10.7289C95.1582 11.3585 94.6403 11.8307 94.0037 11.7914C93.5263 11.7912 93.049 11.5552 92.8103 11.1224L93.2478 10.6898C93.3672 10.9653 93.6463 11.1625 93.9646 11.1625H94.0037C94.2424 11.1625 94.4811 10.9261 94.4812 10.6508C94.4812 10.4934 94.4022 10.375 94.283 10.2963C94.1239 10.2176 93.9645 10.1394 93.8054 10.1C93.1687 9.90321 92.9695 9.62689 92.9695 9.15466V9.1156C93.0094 8.56481 93.4867 8.13202 94.0437 8.17126ZM89.905 8.25037C90.8599 8.28975 91.6165 9.0766 91.5769 10.0209C91.5768 10.5322 91.3378 11.0047 90.9402 11.3588C90.5822 11.6341 90.1443 11.7916 89.7068 11.7523H88.7117V8.25037H89.905ZM92.532 11.7523H91.8552V8.25037H92.532V11.7523ZM107.375 8.84021H106.14V9.62732H107.335V10.2172H106.14V11.1625H107.375V11.7523H105.465V8.25037H107.375V8.84021ZM108.807 8.25037C109.603 8.25049 110.041 8.60493 110.041 9.2738C110.08 9.78503 109.722 10.2175 109.245 10.2963L110.319 11.7523H109.483L108.568 10.3363H108.489V11.7523H107.812V8.25037H108.807ZM89.5867 8.84021H89.3884V11.1625H89.5867C89.9049 11.2018 90.264 11.0838 90.5027 10.8871C90.7413 10.6511 90.86 10.3358 90.8601 9.98181C90.8601 9.66729 90.741 9.35261 90.5027 9.11658C90.2639 8.91982 89.905 8.80086 89.5867 8.84021ZM108.489 9.86365H108.688C109.125 9.86348 109.325 9.66667 109.325 9.31287C109.325 8.99818 109.126 8.80131 108.688 8.80115H108.489V9.86365Z" fill="white"/>
<path fill-rule="evenodd" clip-rule="evenodd" d="M100.093 8.16888C99.0979 8.16888 98.2622 8.95594 98.2622 9.9791C98.2622 10.9629 99.0581 11.7893 100.093 11.8287C101.127 11.868 101.923 11.0416 101.963 10.0185C101.923 8.99529 101.127 8.16888 100.093 8.16888V8.16888Z" fill="#FD6020"/>
</svg>
