<svg width="27" height="16" viewBox="0 0 27 16" fill="none" xmlns="http://www.w3.org/2000/svg">
<rect x="0.166748" y="1.06665" width="23.4667" height="14.9333" rx="1.06667" fill="#DBDBDB"/>
<rect x="0.166748" y="3.19989" width="23.4667" height="3.2" fill="#B0B0B0"/>
<rect x="2.30029" y="8.53308" width="19.2" height="2.13333" rx="1.06667" fill="white"/>
<circle cx="21.5001" cy="5.33321" r="5.33333" fill="#4C4C4C"/>
<path d="M19.1008 3.33358V7.13306H18.3691V4.22941L17.6451 4.50806V3.89868L19.0201 3.33358H19.1008ZM20.8352 4.90129H21.192C21.2823 4.90129 21.3569 4.88045 21.4159 4.83879C21.475 4.79538 21.5184 4.73462 21.5461 4.65649C21.5739 4.57663 21.5878 4.48375 21.5878 4.37785C21.5878 4.2841 21.5748 4.20163 21.5487 4.13045C21.5227 4.05754 21.4828 4.00024 21.429 3.95858C21.3751 3.91517 21.3074 3.89347 21.2258 3.89347C21.1633 3.89347 21.1043 3.91083 21.0487 3.94556C20.9949 3.97854 20.9524 4.02715 20.9211 4.09139C20.8899 4.15563 20.8743 4.23201 20.8743 4.32056H20.1425C20.1425 4.11222 20.1894 3.9308 20.2831 3.77629C20.3786 3.62177 20.5071 3.50198 20.6685 3.41691C20.83 3.33011 21.0088 3.2867 21.205 3.2867C21.4255 3.2867 21.6191 3.3275 21.7857 3.4091C21.9524 3.4907 22.0826 3.61222 22.1764 3.77368C22.2701 3.9334 22.317 4.13132 22.317 4.36743C22.317 4.48896 22.2944 4.60615 22.2493 4.71899C22.2041 4.83011 22.1382 4.9308 22.0514 5.02108C21.9645 5.11136 21.8586 5.18254 21.7336 5.23462C21.6086 5.2867 21.4671 5.31274 21.3092 5.31274H20.8352V4.90129ZM20.8352 5.49243V5.09399H21.3092C21.488 5.09399 21.6434 5.11743 21.7753 5.16431C21.9073 5.20945 22.0166 5.27542 22.1034 5.36222C22.192 5.44903 22.2579 5.55233 22.3014 5.67212C22.3448 5.79017 22.3665 5.92212 22.3665 6.06795C22.3665 6.24504 22.3369 6.40302 22.2779 6.54191C22.2189 6.6808 22.1364 6.79799 22.0305 6.89347C21.9246 6.98896 21.8014 7.06188 21.6607 7.11222C21.5201 7.16083 21.3673 7.18514 21.2024 7.18514C21.0652 7.18514 20.9307 7.16344 20.7987 7.12004C20.6685 7.07663 20.5514 7.00979 20.4472 6.91951C20.343 6.82924 20.2606 6.71552 20.1998 6.57837C20.139 6.44122 20.1086 6.27889 20.1086 6.09139H20.8378C20.8378 6.18514 20.8543 6.26934 20.8873 6.34399C20.922 6.41691 20.968 6.4742 21.0253 6.51587C21.0826 6.55754 21.1477 6.57837 21.2206 6.57837C21.3057 6.57837 21.3795 6.55667 21.442 6.51326C21.5045 6.46986 21.5522 6.4091 21.5852 6.33097C21.6182 6.25285 21.6347 6.16257 21.6347 6.06014C21.6347 5.92472 21.6173 5.81622 21.5826 5.73462C21.5479 5.65129 21.4975 5.59052 21.4316 5.55233C21.3656 5.5124 21.2857 5.49243 21.192 5.49243H20.8352ZM23.5383 5.41431L22.955 5.26847L23.1451 3.34139H24.9758V3.96639H23.7441L23.6737 4.78149C23.7137 4.75372 23.7727 4.72333 23.8508 4.69035C23.9307 4.65736 24.0192 4.64087 24.1165 4.64087C24.2744 4.64087 24.4133 4.66951 24.5331 4.72681C24.6546 4.7841 24.7571 4.86743 24.8404 4.97681C24.9237 5.08618 24.9871 5.21986 25.0305 5.37785C25.0739 5.53583 25.0956 5.71465 25.0956 5.91431C25.0956 6.08271 25.0731 6.2433 25.0279 6.39608C24.9828 6.54886 24.9133 6.68427 24.8196 6.80233C24.7258 6.92038 24.6095 7.01413 24.4706 7.08358C24.3335 7.15129 24.1711 7.18514 23.9836 7.18514C23.843 7.18514 23.7076 7.16083 23.5774 7.11222C23.4472 7.06361 23.33 6.99156 23.2258 6.89608C23.1217 6.79886 23.0383 6.68254 22.9758 6.54712C22.9133 6.40997 22.8821 6.25372 22.8821 6.07837H23.6034C23.6121 6.1808 23.6321 6.26934 23.6633 6.34399C23.6963 6.41865 23.7397 6.47681 23.7935 6.51847C23.8474 6.5584 23.9099 6.57837 23.981 6.57837C24.0522 6.57837 24.1121 6.56101 24.1607 6.52629C24.2111 6.48983 24.251 6.43948 24.2805 6.37524C24.31 6.31101 24.3309 6.23636 24.343 6.15129C24.3569 6.06448 24.3639 5.9716 24.3639 5.87264C24.3639 5.77195 24.3552 5.6808 24.3378 5.5992C24.3204 5.51761 24.2935 5.44729 24.2571 5.38826C24.2206 5.32924 24.1729 5.2841 24.1139 5.25285C24.0566 5.2216 23.9897 5.20597 23.9133 5.20597C23.8057 5.20597 23.725 5.22854 23.6711 5.27368C23.6191 5.31708 23.5748 5.36396 23.5383 5.41431Z" fill="white"/>
</svg>
