<svg width="14" height="14" viewBox="0 0 14 14" fill="none" xmlns="http://www.w3.org/2000/svg">
<path d="M12.85 0.5L9.4375 3.9125V2.9375C9.4375 1.55625 8.38125 0.5 7 0.5C5.61875 0.5 4.5625 1.55625 4.5625 2.9375V6.1875C4.5625 6.91875 4.8875 7.56875 5.375 7.975L4.725 8.625C4.15625 8.1375 3.75 7.40625 3.75 6.59375V4.5625C3.2625 4.5625 2.9375 4.8875 2.9375 5.375V6.59375C2.9375 7.65 3.425 8.54375 4.15625 9.19375L0.5 12.9313V13.5H1.06875L13.5 0.9875V0.5H12.85ZM10.6562 4.64375L10.25 5.05V6.59375C10.25 8.1375 8.7875 9.4375 7.1625 9.4375H6.8375C6.59375 9.4375 6.35 9.35625 6.10625 9.35625L5.375 9.925C5.61875 10.0063 5.8625 10.0875 6.1875 10.1687V11.875C3.75 11.875 4.15625 13.5 4.15625 13.5H9.84375C9.84375 13.5 10.25 11.875 7.8125 11.875V10.1687C9.6 9.84375 11.0625 8.38125 11.0625 6.59375V5.375C11.0625 5.05 10.9 4.80625 10.6562 4.64375Z" fill="white"/>
<path d="M9.4375 6.1875V5.8625L6.75625 8.625H7C8.38125 8.625 9.4375 7.4875 9.4375 6.1875Z" fill="white"/>
</svg>
