<svg width="321" height="15" viewBox="0 0 321 15" fill="none" xmlns="http://www.w3.org/2000/svg">
<path d="M1 13C1 13 4.73099 12 6.59649 12C8.46199 12 10.3275 12.6667 12.193 13C14.0585 13.3333 15.924 15.1667 17.7895 14C19.655 12.8333 21.5205 6.66666 23.386 6C25.2515 5.33333 27.117 9.16666 28.9825 10C30.848 10.8333 32.7135 10.8333 34.5789 11C36.4444 11.1667 38.3099 11.1667 40.1754 11C42.0409 10.8333 43.9064 10.8333 45.7719 10C47.6374 9.16666 49.5029 6.16666 51.3684 6C53.2339 5.83333 55.0994 8.66666 56.9649 9C58.8304 9.33333 60.6959 7.83333 62.5614 8C64.4269 8.16666 66.2924 9.5 68.1579 10C70.0234 10.5 71.8889 10.6667 73.7544 11C75.6199 11.3333 77.4854 12 79.3509 12C81.2164 12 83.0819 11.3333 84.9474 11C86.8129 10.6667 88.6784 10.1667 90.5439 10C92.4094 9.83333 94.2749 10.1667 96.1404 10C98.0058 9.83333 99.8714 9 101.737 9C103.602 9 105.468 10.3333 107.333 10C109.199 9.66666 111.064 7.66666 112.93 7C114.795 6.33333 116.661 6.5 118.526 6C120.392 5.5 122.257 4.33333 124.123 4C125.988 3.66666 127.854 3.83333 129.719 4C131.585 4.16666 133.45 4.66666 135.316 5C137.181 5.33333 139.047 5.66666 140.912 6C142.778 6.33333 144.643 6.5 146.509 7C148.374 7.5 150.24 8.5 152.105 9C153.971 9.5 155.836 10 157.702 10C159.567 10 161.433 9.33333 163.298 9C165.164 8.66666 167.029 8.16666 168.895 8C170.76 7.83333 172.626 8 174.491 8C176.357 8 178.222 7.5 180.088 8C181.953 8.5 183.819 10.5 185.684 11C187.55 11.5 189.415 10.8333 191.281 11C193.146 11.1667 195.012 12 196.877 12C198.743 12 200.608 11.3333 202.474 11C204.339 10.6667 206.205 10 208.07 10C209.936 10 211.801 11 213.667 11C215.532 11 217.398 10 219.263 10C221.129 10 222.994 10.6667 224.86 11C226.725 11.3333 228.591 12 230.456 12C232.322 12 234.187 11.5 236.053 11C237.918 10.5 239.784 9 241.649 9C243.515 9 245.38 10.6667 247.246 11C249.111 11.3333 250.977 11 252.842 11C254.708 11 256.573 10.8333 258.439 11C260.304 11.1667 262.17 11.6667 264.035 12C265.901 12.3333 267.766 13 269.632 13C271.497 13 273.363 13.1667 275.228 12C277.094 10.8333 278.959 6.5 280.825 6C282.69 5.5 284.556 8.33333 286.421 9C288.287 9.66666 290.152 11.3333 292.018 10C293.883 8.66666 295.749 0.83333 297.614 0.999996C299.48 1.16666 301.345 9.33333 303.211 11C305.076 12.6667 306.942 11.3333 308.807 11C310.673 10.6667 312.538 9.5 314.404 9C316.269 8.5 320 8 320 8" stroke="#3300FF" stroke-linecap="round"/>
</svg>
